<?xml version="1.0" encoding="UTF-8" standalone="no"?>
<svg width="50px" height="753px" viewBox="0 0 50 753" version="1.1" xmlns="http://www.w3.org/2000/svg" xmlns:xlink="http://www.w3.org/1999/xlink">
    <!-- Generator: Sketch 39 (31667) - http://www.bohemiancoding.com/sketch -->
    <title>colors_left_transition</title>
    <desc>Created with Sketch.</desc>
    <defs></defs>
    <g id="Page-1" stroke="none" stroke-width="1" fill="none" fill-rule="evenodd">
        <g id="Artboard-1" transform="translate(-1252.000000, -53.000000)">
            <g id="Group-3" transform="translate(974.000000, 53.000000)">
                <polygon id="Rectangle-19" fill="#EF45FF" points="0 0 278 0 328 152 328 252 278 55 0 55"></polygon>
                <polygon id="Rectangle-19" fill="#52DFFF" points="0 50 278 50 328 252 328 352 278 81 0 81"></polygon>
                <polygon id="Rectangle-19" fill="#FE4040" points="0 458 278 458 328 550 328 651 278 753 0 753"></polygon>
                <polygon id="Rectangle-19" fill="#FF9425" points="0 361 278 361 328 452 328 553 278 458 0 458"></polygon>
                <polygon id="Rectangle-19" fill="#FAFF69" points="0 76 278 78 328 352 328 452 278 364 0 364"></polygon>
            </g>
        </g>
    </g>
</svg>